<svg xmlns="http://www.w3.org/2000/svg" viewBox="0 0 64 64" width="64" height="64">
  <defs>
    <radialGradient id="bg" cx="50%" cy="38%" r="75%">
      <stop offset="0%" stop-color="#1a1140" />
      <stop offset="100%" stop-color="#08061a" />
    </radialGradient>
    <filter id="stink" x="-40%" y="-40%" width="180%" height="180%">
      <feGaussianBlur stdDeviation="1.4" />
    </filter>
  </defs>

  <!-- backdrop -->
  <rect width="64" height="64" rx="15" fill="url(#bg)" />
  <rect x="0.75" y="0.75" width="62.5" height="62.5" rx="14.25" fill="none"
        stroke="#7b2ff7" stroke-opacity="0.45" stroke-width="1.5" />

  <!-- rising stink (soft glow behind, crisp on top) -->
  <g fill="none" stroke="#7cff6b" stroke-linecap="round" stroke-width="2.6">
    <g filter="url(#stink)" stroke-opacity="0.55">
      <path d="M22 30 C25 26 19 23 22 19 C25 15 19 12 22 8" />
      <path d="M32 31 C35 26 29 23 32 18 C35 13 29 10 32 6" />
      <path d="M42 30 C45 26 39 23 42 19 C45 15 39 12 42 8" />
    </g>
    <path d="M22 30 C25 26 19 23 22 19 C25 15 19 12 22 8" />
    <path d="M32 31 C35 26 29 23 32 18 C35 13 29 10 32 6" />
    <path d="M42 30 C45 26 39 23 42 19 C45 15 39 12 42 8" />
  </g>

  <!-- the pants (tighty-whitey briefs) -->
  <path d="M14 37 Q14 34 17 34 H47 Q50 34 50 37 V42 Q50 52 41 52 Q34 52 32 45 Q30 52 23 52 Q14 52 14 42 Z"
        fill="#f6f1e6" />
  <!-- waistband -->
  <rect x="14" y="34.5" width="36" height="4.5" rx="2.25" fill="#d9d0ba" />
</svg>
